<svg width="32" height="32" viewBox="0 0 32 32" fill="none" xmlns="http://www.w3.org/2000/svg">
<path d="M9.33337 24C7.86671 24 6.68004 25.2 6.68004 26.6667C6.68004 28.1333 7.86671 29.3333 9.33337 29.3333C10.8 29.3333 12 28.1333 12 26.6667C12 25.2 10.8 24 9.33337 24ZM1.33337 2.66666V5.33332H4.00004L8.80004 15.4533L7.00004 18.72C6.78671 19.0933 6.66671 19.5333 6.66671 20C6.66671 21.4667 7.86671 22.6667 9.33337 22.6667H25.3334V20H9.89337C9.70671 20 9.56004 19.8533 9.56004 19.6667L9.60004 19.5067L10.8 17.3333H20.7334C21.7334 17.3333 22.6134 16.7867 23.0667 15.96L27.84 7.30666C27.95 7.10317 28.0054 6.87463 28.0007 6.64336C27.996 6.41209 27.9313 6.186 27.8131 5.98717C27.6949 5.78835 27.5271 5.62359 27.3262 5.50898C27.1252 5.39438 26.898 5.33386 26.6667 5.33332H6.94671L5.69337 2.66666H1.33337ZM22.6667 24C21.2 24 20.0134 25.2 20.0134 26.6667C20.0134 28.1333 21.2 29.3333 22.6667 29.3333C24.1334 29.3333 25.3334 28.1333 25.3334 26.6667C25.3334 25.2 24.1334 24 22.6667 24Z" fill="#1B1B1B"/>
</svg>
