<svg width="32" height="32" viewBox="0 0 32 32" fill="#1B1B1B" xmlns="http://www.w3.org/2000/svg">
<path d="M9.33325 24C7.86658 24 6.67992 25.2 6.67992 26.6666C6.67992 28.1333 7.86658 29.3333 9.33325 29.3333C10.7999 29.3333 11.9999 28.1333 11.9999 26.6666C11.9999 25.2 10.7999 24 9.33325 24ZM1.33325 2.66663V5.33329H3.99992L8.79992 15.4533L6.99992 18.72C6.78658 19.0933 6.66658 19.5333 6.66658 20C6.66658 21.4666 7.86658 22.6666 9.33325 22.6666H25.3333V20H9.89325C9.70658 20 9.55992 19.8533 9.55992 19.6666L9.59992 19.5066L10.7999 17.3333H20.7333C21.7333 17.3333 22.6132 16.7866 23.0666 15.96L27.8399 7.30663C27.9499 7.10314 28.0053 6.8746 28.0006 6.64333C27.9958 6.41206 27.9312 6.18597 27.813 5.98714C27.6948 5.78832 27.527 5.62356 27.3261 5.50895C27.1251 5.39435 26.8979 5.33383 26.6666 5.33329H6.94659L5.69325 2.66663H1.33325ZM22.6666 24C21.1999 24 20.0133 25.2 20.0133 26.6666C20.0133 28.1333 21.1999 29.3333 22.6666 29.3333C24.1333 29.3333 25.3333 28.1333 25.3333 26.6666C25.3333 25.2 24.1333 24 22.6666 24Z"/>
</svg>
