<svg width="24" height="24" viewBox="0 0 24 24" fill="none" xmlns="http://www.w3.org/2000/svg">
<path d="M16.6667 14.6667H15.6133L15.24 14.3067C16.5918 12.7387 17.3348 10.7369 17.3333 8.66667C17.3333 6.95257 16.825 5.27695 15.8727 3.85173C14.9204 2.4265 13.5669 1.31567 11.9833 0.659715C10.3996 0.00375513 8.65706 -0.167874 6.97589 0.166531C5.29472 0.500937 3.75047 1.32636 2.53841 2.53841C1.32636 3.75047 0.500937 5.29472 0.166531 6.97589C-0.167874 8.65706 0.00375513 10.3996 0.659715 11.9833C1.31567 13.5669 2.4265 14.9204 3.85173 15.8727C5.27695 16.825 6.95257 17.3333 8.66667 17.3333C10.8133 17.3333 12.7867 16.5467 14.3067 15.24L14.6667 15.6133V16.6667L21.3333 23.32L23.32 21.3333L16.6667 14.6667ZM8.66667 14.6667C5.34667 14.6667 2.66667 11.9867 2.66667 8.66667C2.66667 5.34667 5.34667 2.66667 8.66667 2.66667C11.9867 2.66667 14.6667 5.34667 14.6667 8.66667C14.6667 11.9867 11.9867 14.6667 8.66667 14.6667Z" fill="#1B1B1B"/>
</svg>
