<svg width="27" height="28" viewBox="0 0 27 28" fill="none" xmlns="http://www.w3.org/2000/svg">
<path d="M8.33325 22C6.86658 22 5.67992 23.2 5.67992 24.6667C5.67992 26.1333 6.86658 27.3333 8.33325 27.3333C9.79992 27.3333 10.9999 26.1333 10.9999 24.6667C10.9999 23.2 9.79992 22 8.33325 22ZM0.333252 0.666666V3.33333H2.99992L7.79992 13.4533L5.99992 16.72C5.78658 17.0933 5.66658 17.5333 5.66658 18C5.66658 19.4667 6.86658 20.6667 8.33325 20.6667H24.3333V18H8.89325C8.70658 18 8.55992 17.8533 8.55992 17.6667L8.59992 17.5067L9.79992 15.3333H19.7333C20.7333 15.3333 21.6132 14.7867 22.0666 13.96L26.8399 5.30667C26.9499 5.10318 27.0053 4.87464 27.0006 4.64337C26.9958 4.4121 26.9312 4.18601 26.813 3.98718C26.6948 3.78836 26.527 3.6236 26.3261 3.50899C26.1251 3.39439 25.8979 3.33387 25.6666 3.33333H5.94659L4.69325 0.666666H0.333252ZM21.6666 22C20.1999 22 19.0133 23.2 19.0133 24.6667C19.0133 26.1333 20.1999 27.3333 21.6666 27.3333C23.1333 27.3333 24.3333 26.1333 24.3333 24.6667C24.3333 23.2 23.1333 22 21.6666 22Z" fill="black"/>
</svg>
