<svg width="87" height="30" viewBox="0 0 87 30" fill="none" xmlns="http://www.w3.org/2000/svg">
<path d="M0 15C0 6.71573 6.71573 0 15 0H72C80.2843 0 87 6.71573 87 15C87 23.2843 80.2843 30 72 30H15C6.71573 30 0 23.2843 0 15Z" fill="#6DD028"/>
<path d="M24.316 10.016V21.008H25.576V10.016H24.316ZM19.732 10.832C18.1 10.832 16.912 12.332 16.912 14.696C16.912 17.06 18.1 18.572 19.732 18.572C21.376 18.572 22.564 17.06 22.564 14.696C22.564 12.332 21.376 10.832 19.732 10.832ZM19.732 11.972C20.692 11.972 21.352 12.992 21.352 14.696C21.352 16.412 20.692 17.444 19.732 17.444C18.772 17.444 18.112 16.412 18.112 14.696C18.112 12.992 18.772 11.972 19.732 11.972ZM35.5831 10.028V18.332H36.7711V10.028H35.5831ZM31.8631 13.136V14.156H33.7951V13.136H31.8631ZM33.4351 10.232V18.008H34.6231V10.232H33.4351ZM27.9271 10.892V16.34H32.2111V10.892H31.0351V12.656H29.1151V10.892H27.9271ZM29.1151 13.628H31.0351V15.332H29.1151V13.628ZM29.5231 19.76V20.78H37.0831V19.76H29.5231ZM29.5231 17.228V20.336H30.7831V17.228H29.5231ZM39.6621 15.824V16.82H47.2701V15.824H39.6621ZM38.4381 18.62V19.652H48.3741V18.62H38.4381ZM39.6621 10.904V16.112H40.9341V11.924H47.1621V10.904H39.6621ZM40.5381 13.34V14.324H46.9221V13.34H40.5381ZM49.3692 15.776V16.784H59.2812V15.776H49.3692ZM50.4732 17.672V18.68H56.7732V20.996H58.0332V17.672H50.4732ZM50.6412 13.94V14.912H58.1652V13.94H50.6412ZM50.6412 10.304V14.42H51.8892V11.276H58.0932V10.304H50.6412ZM51.5292 12.116V13.052H57.8292V12.116H51.5292ZM67.5603 10.016V20.984H68.8203V10.016H67.5603ZM68.4843 14.36V15.392H70.4643V14.36H68.4843ZM64.7163 11.18V11.396C64.7163 14.324 63.2643 16.52 60.3003 18.032L61.0083 18.992C64.5963 17.192 65.9523 14.372 65.9523 11.18H64.7163ZM60.8523 11.18V12.2H65.3643V11.18H60.8523Z" fill="white"/>
</svg>
