<svg width="76" height="30" viewBox="0 0 76 30" fill="none" xmlns="http://www.w3.org/2000/svg">
<path d="M0 15C0 6.71573 6.71573 0 15 0H61C69.2843 0 76 6.71573 76 15C76 23.2843 69.2843 30 61 30H15C6.71573 30 0 23.2843 0 15Z" fill="#FF8E14"/>
<path d="M16.984 15.62V16.64H17.836C19.972 16.64 21.268 16.592 22.792 16.34L22.684 15.332C21.208 15.584 19.936 15.62 17.836 15.62H16.984ZM16.96 10.772V11.78H20.62V13.16H16.984V16.268H18.232V14.12H21.856V10.772H16.96ZM24.376 10.04V18.092H25.636V10.04H24.376ZM18.46 19.76V20.78H25.936V19.76H18.46ZM18.46 17.48V20.084H19.72V17.48H18.46ZM22.468 12.788V13.856H24.652V12.788H22.468ZM30.3271 11.852V12.296C30.3271 13.676 29.3551 14.984 27.6511 15.512L28.2391 16.484C30.2191 15.884 31.3591 14.228 31.3591 12.296V11.852H30.3271ZM30.5551 11.852V12.296C30.5551 14.132 31.7311 15.68 33.7111 16.244L34.2871 15.248C32.5831 14.792 31.5751 13.58 31.5751 12.296V11.852H30.5551ZM27.9631 11.288V12.284H33.9391V11.288H27.9631ZM30.3271 10.04V11.732H31.5871V10.04H30.3271ZM35.2711 10.04V16.7H36.5311V10.04H35.2711ZM32.8591 16.916C30.5551 16.916 29.1511 17.66 29.1511 18.944C29.1511 20.24 30.5551 20.984 32.8591 20.984C35.1631 20.984 36.5791 20.24 36.5791 18.944C36.5791 17.66 35.1631 16.916 32.8591 16.916ZM32.8591 17.888C34.4191 17.888 35.3191 18.26 35.3191 18.944C35.3191 19.64 34.4191 20.012 32.8591 20.012C31.2991 20.012 30.4111 19.64 30.4111 18.944C30.4111 18.26 31.2991 17.888 32.8591 17.888ZM38.4261 15.776V16.784H48.3381V15.776H38.4261ZM39.5301 17.672V18.68H45.8301V20.996H47.0901V17.672H39.5301ZM39.6981 13.94V14.912H47.2221V13.94H39.6981ZM39.6981 10.304V14.42H40.9461V11.276H47.1501V10.304H39.6981ZM40.5861 12.116V13.052H46.8861V12.116H40.5861ZM56.6172 10.016V20.984H57.8772V10.016H56.6172ZM57.5412 14.36V15.392H59.5212V14.36H57.5412ZM53.7732 11.18V11.396C53.7732 14.324 52.3212 16.52 49.3572 18.032L50.0652 18.992C53.6532 17.192 55.0092 14.372 55.0092 11.18H53.7732ZM49.9092 11.18V12.2H54.4212V11.18H49.9092Z" fill="white"/>
</svg>
