<svg width="27" height="28" viewBox="0 0 27 28" fill="none" xmlns="http://www.w3.org/2000/svg">
<path d="M8.3335 22C6.86683 22 5.68016 23.2 5.68016 24.6666C5.68016 26.1333 6.86683 27.3333 8.3335 27.3333C9.80016 27.3333 11.0002 26.1333 11.0002 24.6666C11.0002 23.2 9.80016 22 8.3335 22ZM0.333496 0.666626V3.33329H3.00016L7.80016 13.4533L6.00016 16.72C5.78683 17.0933 5.66683 17.5333 5.66683 18C5.66683 19.4666 6.86683 20.6666 8.3335 20.6666H24.3335V18H8.8935C8.70683 18 8.56016 17.8533 8.56016 17.6666L8.60016 17.5066L9.80016 15.3333H19.7335C20.7335 15.3333 21.6135 14.7866 22.0668 13.96L26.8402 5.30663C26.9502 5.10314 27.0055 4.8746 27.0008 4.64333C26.9961 4.41206 26.9314 4.18597 26.8132 3.98714C26.695 3.78832 26.5272 3.62356 26.3263 3.50895C26.1254 3.39435 25.8981 3.33383 25.6668 3.33329H5.94683L4.6935 0.666626H0.333496ZM21.6668 22C20.2002 22 19.0135 23.2 19.0135 24.6666C19.0135 26.1333 20.2002 27.3333 21.6668 27.3333C23.1335 27.3333 24.3335 26.1333 24.3335 24.6666C24.3335 23.2 23.1335 22 21.6668 22Z" fill="#1B1B1B"/>
</svg>
