<svg width="76" height="42" viewBox="0 0 76 42" fill="none" xmlns="http://www.w3.org/2000/svg">
<rect x="1" y="1" width="74" height="40" rx="20" fill="#F8F7F7"/>
<path d="M27.12 14.704V29.328H28.8V14.704H27.12ZM22.832 16.256V16.544C22.832 20.448 21.056 23.344 16.848 25.376L17.728 26.72C22.752 24.272 24.48 20.592 24.48 16.256H22.832ZM17.568 16.256V17.6H23.584V16.256H17.568ZM31.8387 15.92V17.152H40.3988V15.92H31.8387ZM36.1267 17.616C33.9987 17.616 32.5907 18.464 32.5907 19.792C32.5907 21.136 33.9987 21.984 36.1267 21.984C38.2548 21.984 39.6788 21.136 39.6788 19.792C39.6788 18.464 38.2548 17.616 36.1267 17.616ZM36.1267 18.752C37.3108 18.752 38.0788 19.136 38.0788 19.792C38.0788 20.432 37.3108 20.848 36.1267 20.848C34.9587 20.848 34.1747 20.432 34.1747 19.792C34.1747 19.136 34.9587 18.752 36.1267 18.752ZM35.2787 14.608V16.56H36.9748V14.608H35.2787ZM35.2787 21.344V23.344H36.9748V21.344H35.2787ZM41.6947 14.72V24.56H43.3748V14.72H41.6947ZM33.4387 25.184V26.496H41.6947V29.328H43.3748V25.184H33.4387ZM31.5987 24.176C34.2067 24.176 37.6467 24.128 40.7828 23.6L40.6547 22.448C37.6308 22.848 34.0627 22.864 31.3907 22.864L31.5987 24.176ZM53.6935 18.624V19.984H57.2615V18.624H53.6935ZM56.3495 14.72V25.408H58.0295V14.72H56.3495ZM48.5575 27.68V29.04H58.3975V27.68H48.5575ZM48.5575 24.48V28.432H50.2215V24.48H48.5575ZM49.4855 16.576V17.632C49.4855 19.616 48.1735 21.536 45.9015 22.32L46.7495 23.664C49.3575 22.736 50.8455 20.336 50.8455 17.632V16.576H49.4855ZM49.8215 16.576V17.632C49.8215 20.16 51.2455 22.464 53.7735 23.344L54.6055 22.032C52.4135 21.264 51.1655 19.44 51.1655 17.632V16.576H49.8215ZM46.3815 15.808V17.152H54.2215V15.808H46.3815Z" fill="#1B1B1B"/>
<rect x="1" y="1" width="74" height="40" rx="20" stroke="#1B1B1B" stroke-width="2"/>
</svg>
