<svg width="142" height="149" viewBox="0 0 142 149" fill="none" xmlns="http://www.w3.org/2000/svg">
<rect x="0.5" y="0.5" width="141" height="148" rx="70.5" fill="#F8F7F7" fill-opacity="0.8"/>
<path d="M43.632 48.032V50.672C43.632 53.168 42.608 55.792 40.512 57.024L41.568 58.272C43.792 56.912 44.928 53.84 44.928 50.672V48.032H43.632ZM43.936 48.032V50.56C43.936 53.68 44.928 56.592 47.168 57.872L48.16 56.544C46.176 55.456 45.248 53.024 45.248 50.56V48.032H43.936ZM51.616 46.704V61.328H53.216V46.704H51.616ZM49.536 52.496V53.856H52.176V52.496H49.536ZM48.416 46.976V60.624H50V46.976H48.416ZM62.2868 48.96V50.304H66.2867V48.96H62.2868ZM62.2868 51.952V53.296H66.3348V51.952H62.2868ZM55.9827 47.568V54.672H62.7347V47.568H61.0868V49.792H57.6467V47.568H55.9827ZM57.6467 51.12H61.0868V53.312H57.6467V51.12ZM57.5827 56.128V57.488H65.7587V61.328H67.4388V56.128H57.5827ZM65.7587 46.704V55.408H67.4388V46.704H65.7587ZM73.8473 48.048V57.76H79.5113V48.048H77.9593V51.488H75.4313V48.048H73.8473ZM75.4313 52.816H77.9593V56.4H75.4313V52.816ZM84.2633 46.704V61.328H85.8633V46.704H84.2633ZM82.1513 52.4V53.76H84.7913V52.4H82.1513ZM81.0313 46.976V60.624H82.6153V46.976H81.0313ZM93.718 51.856V54.528H95.382V51.856H93.718ZM93.702 46.944V47.504C93.702 49.312 91.606 50.96 88.694 51.328L89.318 52.656C92.63 52.144 95.142 50.16 95.142 47.504V46.944H93.702ZM93.974 46.944V47.504C93.974 50.192 96.486 52.128 99.782 52.656L100.406 51.328C97.494 50.96 95.398 49.344 95.398 47.504V46.944H93.974ZM87.958 53.84V55.168H101.174V53.84H87.958ZM94.55 56.192C91.398 56.192 89.51 57.12 89.51 58.752C89.51 60.4 91.398 61.312 94.55 61.312C97.702 61.312 99.59 60.4 99.59 58.752C99.59 57.12 97.702 56.192 94.55 56.192ZM94.55 57.472C96.71 57.472 97.894 57.904 97.894 58.752C97.894 59.6 96.71 60.048 94.55 60.048C92.39 60.048 91.206 59.6 91.206 58.752C91.206 57.904 92.39 57.472 94.55 57.472Z" fill="#1B1B1B"/>
<rect x="40" y="74" width="62" height="1" fill="#1B1B1B"/>
<path d="M48.512 93.624V94.984H52.08V93.624H48.512ZM51.168 89.72V100.408H52.848V89.72H51.168ZM43.376 102.68V104.04H53.216V102.68H43.376ZM43.376 99.48V103.432H45.04V99.48H43.376ZM44.304 91.576V92.632C44.304 94.616 42.992 96.536 40.72 97.32L41.568 98.664C44.176 97.736 45.664 95.336 45.664 92.632V91.576H44.304ZM44.64 91.576V92.632C44.64 95.16 46.064 97.464 48.592 98.344L49.424 97.032C47.232 96.264 45.984 94.44 45.984 92.632V91.576H44.64ZM41.2 90.808V92.152H49.04V90.808H41.2ZM56.9747 90.36V91.72H66.3188V90.36H56.9747ZM55.3267 95.512V96.872H68.5747V95.512H55.3267ZM61.0868 96.456V99.72H62.7508V96.456H61.0868ZM65.2788 90.36V91.48C65.2788 92.68 65.2788 94.056 64.8148 95.976L66.4468 96.152C66.9268 94.184 66.9268 92.712 66.9268 91.48V90.36H65.2788ZM56.6867 99.256V100.6H65.3108V104.328H66.9908V99.256H56.6867ZM73.9433 96.552V97.928H74.9033C77.1753 97.928 78.5833 97.864 80.2633 97.56L80.1033 96.2C78.4873 96.504 77.1273 96.552 74.9033 96.552H73.9433ZM73.9433 90.728V97.304H75.5593V92.088H79.6393V90.728H73.9433ZM75.0633 93.624V94.904H79.4793V93.624H75.0633ZM84.1673 89.704V98.6H85.7513V89.704H84.1673ZM82.0713 93.416V94.776H84.6313V93.416H82.0713ZM80.9833 89.976V98.504H82.5513V89.976H80.9833ZM75.8473 99.304V100.664H84.0873V104.328H85.7513V99.304H75.8473ZM88.438 91.048V100.76H94.102V91.048H92.55V94.488H90.022V91.048H88.438ZM90.022 95.816H92.55V99.4H90.022V95.816ZM98.854 89.704V104.328H100.454V89.704H98.854ZM96.742 95.4V96.76H99.382V95.4H96.742ZM95.622 89.976V103.624H97.206V89.976H95.622Z" fill="#1B1B1B"/>
<rect x="0.5" y="0.5" width="141" height="148" rx="70.5" stroke="#1B1B1B"/>
</svg>