<svg width="25" height="25" viewBox="0 0 27 28" fill="none" xmlns="http://www.w3.org/2000/svg" style="padding: 20px">
<path d="M8.33325 22C6.86658 22 5.67992 23.2 5.67992 24.6666C5.67992 26.1333 6.86658 27.3333 8.33325 27.3333C9.79992 27.3333 10.9999 26.1333 10.9999 24.6666C10.9999 23.2 9.79992 22 8.33325 22ZM0.333252 0.666626V3.33329H2.99992L7.79992 13.4533L5.99992 16.72C5.78658 17.0933 5.66658 17.5333 5.66658 18C5.66658 19.4666 6.86658 20.6666 8.33325 20.6666H24.3333V18H8.89325C8.70658 18 8.55992 17.8533 8.55992 17.6666L8.59992 17.5066L9.79992 15.3333H19.7333C20.7333 15.3333 21.6132 14.7866 22.0666 13.96L26.8399 5.30663C26.9499 5.10314 27.0053 4.8746 27.0006 4.64333C26.9958 4.41206 26.9312 4.18597 26.813 3.98714C26.6948 3.78832 26.527 3.62356 26.3261 3.50895C26.1251 3.39435 25.8979 3.33383 25.6666 3.33329H5.94659L4.69325 0.666626H0.333252ZM21.6666 22C20.1999 22 19.0133 23.2 19.0133 24.6666C19.0133 26.1333 20.1999 27.3333 21.6666 27.3333C23.1333 27.3333 24.3333 26.1333 24.3333 24.6666C24.3333 23.2 23.1333 22 21.6666 22Z" fill="#1B1B1B"/>
</svg>
