<svg width="27" height="16" viewBox="0 0 27 16" fill="none" xmlns="http://www.w3.org/2000/svg">
<path d="M9.688 0.783999V8.928H11.016V0.783999H9.688ZM10.648 4.176V5.296H13.16V4.176H10.648ZM0.456 6.992V8.096H1.576C4.616 8.096 6.328 8 8.312 7.584L8.168 6.512C6.232 6.896 4.552 6.992 1.576 6.992H0.456ZM0.456 1.728V7.648H1.768V2.8H6.824V1.728H0.456ZM1.976 9.728V14.48H3.304V10.816H11.144V9.728H1.976ZM1.976 13.984V15.056H11.416V13.984H1.976ZM24.9187 0.783999V15.248H26.2467V0.783999H24.9187ZM20.6788 2.336V2.56C20.6788 6.4 18.7428 9.472 14.5667 11.488L15.2707 12.56C20.1027 10.192 21.9908 6.528 21.9908 2.336H20.6788ZM15.2227 2.336V3.424H21.2548V2.336H15.2227Z" fill="#777777"/>
</svg>
