<svg width="142" height="149" viewBox="0 0 142 149" fill="none" xmlns="http://www.w3.org/2000/svg">
<rect x="0.5" y="0.5" width="141" height="148" rx="70.5" fill="#F8F7F7" fill-opacity="0.8"/>
<path d="M48.512 72.124V73.484H52.08V72.124H48.512ZM51.168 68.22V78.908H52.848V68.22H51.168ZM43.376 81.18V82.54H53.216V81.18H43.376ZM43.376 77.98V81.932H45.04V77.98H43.376ZM44.304 70.076V71.132C44.304 73.116 42.992 75.036 40.72 75.82L41.568 77.164C44.176 76.236 45.664 73.836 45.664 71.132V70.076H44.304ZM44.64 70.076V71.132C44.64 73.66 46.064 75.964 48.592 76.844L49.424 75.532C47.232 74.764 45.984 72.94 45.984 71.132V70.076H44.64ZM41.2 69.308V70.652H49.04V69.308H41.2ZM56.9747 68.86V70.22H66.3188V68.86H56.9747ZM55.3267 74.012V75.372H68.5747V74.012H55.3267ZM61.0868 74.956V78.22H62.7508V74.956H61.0868ZM65.2788 68.86V69.98C65.2788 71.18 65.2788 72.556 64.8148 74.476L66.4468 74.652C66.9268 72.684 66.9268 71.212 66.9268 69.98V68.86H65.2788ZM56.6867 77.756V79.1H65.3108V82.828H66.9908V77.756H56.6867ZM73.9433 75.052V76.428H74.9033C77.1753 76.428 78.5833 76.364 80.2633 76.06L80.1033 74.7C78.4873 75.004 77.1273 75.052 74.9033 75.052H73.9433ZM73.9433 69.228V75.804H75.5593V70.588H79.6393V69.228H73.9433ZM75.0633 72.124V73.404H79.4793V72.124H75.0633ZM84.1673 68.204V77.1H85.7513V68.204H84.1673ZM82.0713 71.916V73.276H84.6313V71.916H82.0713ZM80.9833 68.476V77.004H82.5513V68.476H80.9833ZM75.8473 77.804V79.164H84.0873V82.828H85.7513V77.804H75.8473ZM88.438 69.548V79.26H94.102V69.548H92.55V72.988H90.022V69.548H88.438ZM90.022 74.316H92.55V77.9H90.022V74.316ZM98.854 68.204V82.828H100.454V68.204H98.854ZM96.742 73.9V75.26H99.382V73.9H96.742ZM95.622 68.476V82.124H97.206V68.476H95.622Z" fill="#1B1B1B"/>
<rect x="0.5" y="0.5" width="141" height="148" rx="70.5" stroke="#1B1B1B"/>
</svg>
