<svg width="142" height="149" viewBox="0 0 142 149" fill="none" xmlns="http://www.w3.org/2000/svg">
<rect x="0.5" y="0.5" width="141" height="148" rx="70.5" fill="#F8F7F7" fill-opacity="0.8"/>
<path d="M43.632 69.532V72.172C43.632 74.668 42.608 77.292 40.512 78.524L41.568 79.772C43.792 78.412 44.928 75.34 44.928 72.172V69.532H43.632ZM43.936 69.532V72.06C43.936 75.18 44.928 78.092 47.168 79.372L48.16 78.044C46.176 76.956 45.248 74.524 45.248 72.06V69.532H43.936ZM51.616 68.204V82.828H53.216V68.204H51.616ZM49.536 73.996V75.356H52.176V73.996H49.536ZM48.416 68.476V82.124H50V68.476H48.416ZM62.2868 70.46V71.804H66.2867V70.46H62.2868ZM62.2868 73.452V74.796H66.3348V73.452H62.2868ZM55.9827 69.068V76.172H62.7347V69.068H61.0868V71.292H57.6467V69.068H55.9827ZM57.6467 72.62H61.0868V74.812H57.6467V72.62ZM57.5827 77.628V78.988H65.7587V82.828H67.4388V77.628H57.5827ZM65.7587 68.204V76.908H67.4388V68.204H65.7587ZM73.8473 69.548V79.26H79.5113V69.548H77.9593V72.988H75.4313V69.548H73.8473ZM75.4313 74.316H77.9593V77.9H75.4313V74.316ZM84.2633 68.204V82.828H85.8633V68.204H84.2633ZM82.1513 73.9V75.26H84.7913V73.9H82.1513ZM81.0313 68.476V82.124H82.6153V68.476H81.0313ZM93.718 73.356V76.028H95.382V73.356H93.718ZM93.702 68.444V69.004C93.702 70.812 91.606 72.46 88.694 72.828L89.318 74.156C92.63 73.644 95.142 71.66 95.142 69.004V68.444H93.702ZM93.974 68.444V69.004C93.974 71.692 96.486 73.628 99.782 74.156L100.406 72.828C97.494 72.46 95.398 70.844 95.398 69.004V68.444H93.974ZM87.958 75.34V76.668H101.174V75.34H87.958ZM94.55 77.692C91.398 77.692 89.51 78.62 89.51 80.252C89.51 81.9 91.398 82.812 94.55 82.812C97.702 82.812 99.59 81.9 99.59 80.252C99.59 78.62 97.702 77.692 94.55 77.692ZM94.55 78.972C96.71 78.972 97.894 79.404 97.894 80.252C97.894 81.1 96.71 81.548 94.55 81.548C92.39 81.548 91.206 81.1 91.206 80.252C91.206 79.404 92.39 78.972 94.55 78.972Z" fill="#1B1B1B"/>
<rect x="0.5" y="0.5" width="141" height="148" rx="70.5" stroke="#1B1B1B"/>
</svg>
