<svg width="440" height="58" viewBox="0 0 440 58" fill="none" xmlns="http://www.w3.org/2000/svg">
<rect width="440" height="58" fill="#1B1B1B"/>
<path d="M193.777 23.788V24.274C193.777 25.984 192.013 27.856 188.341 28.306L189.223 30.178C193.453 29.602 195.847 27.208 195.847 24.274V23.788H193.777ZM194.461 23.788V24.274C194.461 27.208 196.855 29.602 201.103 30.178L201.967 28.306C198.295 27.856 196.531 25.984 196.531 24.274V23.788H194.461ZM193.903 32.5V38.62H196.279V32.5H193.903ZM187.621 31.132V33.04H202.687V31.132H187.621ZM188.953 22.78V24.67H201.319V22.78H188.953ZM204.161 30.16V32.068H219.245V30.16H204.161ZM210.695 31.366V34.876H213.107V31.366H210.695ZM206.015 22.636V28.828H217.337V22.636H206.015ZM214.979 24.508V26.956H208.355V24.508H214.979ZM205.907 36.406V38.314H217.589V36.406H205.907ZM205.907 33.472V37.036H208.283V33.472H205.907ZM231.412 21.934V38.602H233.788V21.934H231.412ZM233.248 28.432V30.43H236.2V28.432H233.248ZM220.648 24.4V26.308H230.35V24.4H220.648ZM225.526 27.244C223.096 27.244 221.296 28.9 221.296 31.222C221.296 33.544 223.096 35.2 225.526 35.2C227.956 35.2 229.756 33.544 229.756 31.222C229.756 28.9 227.956 27.244 225.526 27.244ZM225.526 29.188C226.66 29.188 227.47 29.944 227.47 31.222C227.47 32.5 226.66 33.256 225.526 33.256C224.392 33.256 223.582 32.5 223.582 31.222C223.582 29.944 224.392 29.188 225.526 29.188ZM224.32 22.204V25.12H226.714V22.204H224.32ZM248.763 21.934V38.602H251.175V21.934H248.763ZM243.849 23.662V24.094C243.849 28.558 242.121 31.582 237.333 33.886L238.575 35.794C244.497 32.932 246.225 28.756 246.225 23.662H243.849ZM238.215 23.662V25.552H244.983V23.662H238.215Z" fill="white"/>
</svg>
